<?xml version="1.0" encoding="utf-8"?>
<!-- Generator: Adobe Illustrator 28.2.0, SVG Export Plug-In . SVG Version: 6.00 Build 0)  -->
<svg version="1.1" id="Layer_1" xmlns="http://www.w3.org/2000/svg" xmlns:xlink="http://www.w3.org/1999/xlink" x="0px" y="0px"
	 viewBox="0 0 226.5 226.5" style="enable-background:new 0 0 226.5 226.5;" xml:space="preserve">
<style type="text/css">
	.st0{fill:none;stroke:#2176FF;stroke-width:4;stroke-miterlimit:10;}
	.st1{fill:#2176FF;}
	.st2{fill:none;stroke:#2176FF;stroke-width:14;stroke-miterlimit:10;}
</style>
<g>
	<path class="st0" d="M173.8,93.3c-0.8-25.6-26.5-42.5-50.1-34c-1.1,0.4-1.4,1.8-0.6,2.6l5.2,5.2c4.4,4.4-2.3,11.1-6.7,6.7
		c-9.4-9.4-8.5-8.5-8.8-8.8C89,46.5,53.4,62.6,52.4,93.3c-0.3,9.3,2.8,18.4,8.8,25.6c2.6,3.1,1.3,0.9,21.9,46.3
		c2.9,6.3,14,6.4,16.7-1.9c2.9-9.1,8.1-15,13.3-15c5.2,0,10.4,5.9,13.3,15c2.6,8.3,13.8,8.1,16.7,1.9c20.6-45.2,19.3-43.1,21.9-46.3
		C171,111.7,174.1,102.7,173.8,93.3z"/>
	<g>
		<path class="st1" d="M74.4,107.9c-6.7-8.1-6.3-20.2,0.9-27.6c4.4-4.4,11.1,2.2,6.7,6.6c-3.9,3.9-4.1,10.5-0.4,14.9
			C85.7,106.7,78.4,112.7,74.4,107.9z"/>
		<path class="st1" d="M173.8,93.3c-0.8-25.6-26.5-42.5-50.1-34c-1.1,0.4-1.4,1.8-0.6,2.6l5.2,5.2c4.4,4.4-2.3,11.1-6.7,6.7
			l-8.6-8.5v83.1c5.2,0,10.4,5.9,13.3,15c2.6,8.3,13.8,8.1,16.7,1.9c20.6-45.2,19.3-43.1,21.9-46.3
			C171,111.7,174.1,102.7,173.8,93.3z"/>
	</g>
</g>
<circle class="st2" cx="113.2" cy="113.2" r="106.2"/>
</svg>
